<mxfile host="app.diagrams.net" modified="2021-03-31T02:46:42.989Z" agent="5.0 (Windows)" etag="bmRXeOIdLhuZu44u4N2t" version="14.5.3" type="github">
  <diagram id="8Nvgd8Eab-I_yYJ0Jjzt" name="Page-1">
    <mxGraphModel dx="1319" dy="953" grid="0" gridSize="10" guides="1" tooltips="1" connect="1" arrows="1" fold="1" page="0" pageScale="1" pageWidth="827" pageHeight="1169" math="0" shadow="0">
      <root>
        <mxCell id="0" />
        <mxCell id="1" parent="0" />
        <mxCell id="LH-airkl6y37wP08uyL1-121" style="edgeStyle=orthogonalEdgeStyle;rounded=0;orthogonalLoop=1;jettySize=auto;html=1;fontFamily=JetBrains Mono;fontSource=https%3A%2F%2Ffonts.googleapis.com%2Fcss%3Ffamily%3DJetBrains%2BMono;fontSize=14;fontColor=#000000;" edge="1" parent="1" source="LH-airkl6y37wP08uyL1-119" target="LH-airkl6y37wP08uyL1-120">
          <mxGeometry relative="1" as="geometry" />
        </mxCell>
        <mxCell id="LH-airkl6y37wP08uyL1-119" value="" style="rounded=1;whiteSpace=wrap;html=1;shadow=0;labelBackgroundColor=#E6E6E6;sketch=0;strokeWidth=2;gradientColor=none;fontFamily=JetBrains Mono;fontSource=https%3A%2F%2Ffonts.googleapis.com%2Fcss%3Ffamily%3DJetBrains%2BMono;fontSize=14;fontColor=#000000;align=center;fillColor=#FFFFFF;strokeColor=#660000;" vertex="1" parent="1">
          <mxGeometry x="380" width="360" height="370" as="geometry" />
        </mxCell>
        <mxCell id="LH-airkl6y37wP08uyL1-34" value="" style="edgeStyle=orthogonalEdgeStyle;rounded=0;orthogonalLoop=1;jettySize=auto;html=1;fontFamily=JetBrains Mono;fontSource=https%3A%2F%2Ffonts.googleapis.com%2Fcss%3Ffamily%3DJetBrains%2BMono;fontSize=13;fontColor=#3399FF;" edge="1" parent="1" source="LH-airkl6y37wP08uyL1-16">
          <mxGeometry relative="1" as="geometry">
            <mxPoint x="350" y="185" as="targetPoint" />
          </mxGeometry>
        </mxCell>
        <mxCell id="LH-airkl6y37wP08uyL1-42" value="&lt;font style=&quot;font-size: 13px&quot;&gt;Client&lt;/font&gt;" style="shape=umlActor;verticalLabelPosition=bottom;verticalAlign=top;html=1;outlineConnect=0;fontFamily=JetBrains Mono;fontSource=https%3A%2F%2Ffonts.googleapis.com%2Fcss%3Ffamily%3DJetBrains%2BMono;fontSize=14;fontStyle=0;fillColor=#dae8fc;strokeColor=#6c8ebf;strokeWidth=2;shadow=0;sketch=0;align=center;" vertex="1" parent="1">
          <mxGeometry x="455" y="138.75" width="55" height="112.5" as="geometry" />
        </mxCell>
        <mxCell id="LH-airkl6y37wP08uyL1-43" value="&lt;font color=&quot;#660000&quot;&gt;Client&lt;/font&gt;" style="shape=table;startSize=30;container=1;collapsible=1;childLayout=tableLayout;fixedRows=1;rowLines=0;fontStyle=1;align=center;resizeLast=1;shadow=0;labelBackgroundColor=#ffffff;sketch=0;strokeWidth=1;fontFamily=JetBrains Mono;fontSource=https%3A%2F%2Ffonts.googleapis.com%2Fcss%3Ffamily%3DJetBrains%2BMono;fontSize=13;fontColor=#3399FF;html=1;swimlaneFillColor=none;resizeLastRow=0;columnLines=1;horizontal=1;" vertex="1" parent="1">
          <mxGeometry x="41" y="80" width="270" height="210" as="geometry">
            <mxRectangle x="40" y="90" width="150" height="30" as="alternateBounds" />
          </mxGeometry>
        </mxCell>
        <mxCell id="LH-airkl6y37wP08uyL1-44" value="" style="shape=partialRectangle;collapsible=0;dropTarget=0;pointerEvents=0;fillColor=none;top=0;left=0;bottom=1;right=0;points=[[0,0.5],[1,0.5]];portConstraint=eastwest;" vertex="1" parent="LH-airkl6y37wP08uyL1-43">
          <mxGeometry y="30" width="270" height="30" as="geometry" />
        </mxCell>
        <mxCell id="LH-airkl6y37wP08uyL1-45" value="PK" style="shape=partialRectangle;connectable=0;fillColor=none;top=0;left=0;bottom=0;right=0;fontStyle=1;overflow=hidden;" vertex="1" parent="LH-airkl6y37wP08uyL1-44">
          <mxGeometry width="30" height="30" as="geometry" />
        </mxCell>
        <mxCell id="LH-airkl6y37wP08uyL1-46" value="id" style="shape=partialRectangle;connectable=0;fillColor=none;top=0;left=0;bottom=0;right=0;align=left;spacingLeft=6;fontStyle=5;overflow=hidden;" vertex="1" parent="LH-airkl6y37wP08uyL1-44">
          <mxGeometry x="30" width="100" height="30" as="geometry" />
        </mxCell>
        <mxCell id="LH-airkl6y37wP08uyL1-103" value="INT NOT NULL" style="shape=partialRectangle;connectable=0;fillColor=none;top=0;left=0;bottom=0;right=0;align=left;spacingLeft=6;fontStyle=1;overflow=hidden;" vertex="1" parent="LH-airkl6y37wP08uyL1-44">
          <mxGeometry x="130" width="140" height="30" as="geometry" />
        </mxCell>
        <mxCell id="LH-airkl6y37wP08uyL1-47" value="" style="shape=partialRectangle;collapsible=0;dropTarget=0;pointerEvents=0;fillColor=none;top=0;left=0;bottom=0;right=0;points=[[0,0.5],[1,0.5]];portConstraint=eastwest;" vertex="1" parent="LH-airkl6y37wP08uyL1-43">
          <mxGeometry y="60" width="270" height="30" as="geometry" />
        </mxCell>
        <mxCell id="LH-airkl6y37wP08uyL1-48" value="UN" style="shape=partialRectangle;connectable=0;fillColor=none;top=0;left=0;bottom=0;right=0;editable=1;overflow=hidden;fontStyle=1" vertex="1" parent="LH-airkl6y37wP08uyL1-47">
          <mxGeometry width="30" height="30" as="geometry" />
        </mxCell>
        <mxCell id="LH-airkl6y37wP08uyL1-49" value="code" style="shape=partialRectangle;connectable=0;fillColor=none;top=0;left=0;bottom=0;right=0;align=left;spacingLeft=6;overflow=hidden;" vertex="1" parent="LH-airkl6y37wP08uyL1-47">
          <mxGeometry x="30" width="100" height="30" as="geometry" />
        </mxCell>
        <mxCell id="LH-airkl6y37wP08uyL1-104" value="VCHAR(11) NOT NULL" style="shape=partialRectangle;connectable=0;fillColor=none;top=0;left=0;bottom=0;right=0;align=left;spacingLeft=6;overflow=hidden;fontStyle=1" vertex="1" parent="LH-airkl6y37wP08uyL1-47">
          <mxGeometry x="130" width="140" height="30" as="geometry" />
        </mxCell>
        <mxCell id="LH-airkl6y37wP08uyL1-50" value="" style="shape=partialRectangle;collapsible=0;dropTarget=0;pointerEvents=0;fillColor=none;top=0;left=0;bottom=0;right=0;points=[[0,0.5],[1,0.5]];portConstraint=eastwest;" vertex="1" parent="LH-airkl6y37wP08uyL1-43">
          <mxGeometry y="90" width="270" height="30" as="geometry" />
        </mxCell>
        <mxCell id="LH-airkl6y37wP08uyL1-51" value="" style="shape=partialRectangle;connectable=0;fillColor=none;top=0;left=0;bottom=0;right=0;editable=1;overflow=hidden;" vertex="1" parent="LH-airkl6y37wP08uyL1-50">
          <mxGeometry width="30" height="30" as="geometry" />
        </mxCell>
        <mxCell id="LH-airkl6y37wP08uyL1-52" value="name" style="shape=partialRectangle;connectable=0;fillColor=none;top=0;left=0;bottom=0;right=0;align=left;spacingLeft=6;overflow=hidden;" vertex="1" parent="LH-airkl6y37wP08uyL1-50">
          <mxGeometry x="30" width="100" height="30" as="geometry" />
        </mxCell>
        <mxCell id="LH-airkl6y37wP08uyL1-105" value="VCHAR(45) NOT NULL" style="shape=partialRectangle;connectable=0;fillColor=none;top=0;left=0;bottom=0;right=0;align=left;spacingLeft=6;overflow=hidden;fontStyle=1" vertex="1" parent="LH-airkl6y37wP08uyL1-50">
          <mxGeometry x="130" width="140" height="30" as="geometry" />
        </mxCell>
        <mxCell id="LH-airkl6y37wP08uyL1-53" value="" style="shape=partialRectangle;collapsible=0;dropTarget=0;pointerEvents=0;fillColor=none;top=0;left=0;bottom=0;right=0;points=[[0,0.5],[1,0.5]];portConstraint=eastwest;" vertex="1" parent="LH-airkl6y37wP08uyL1-43">
          <mxGeometry y="120" width="270" height="30" as="geometry" />
        </mxCell>
        <mxCell id="LH-airkl6y37wP08uyL1-54" value="" style="shape=partialRectangle;connectable=0;fillColor=none;top=0;left=0;bottom=0;right=0;editable=1;overflow=hidden;" vertex="1" parent="LH-airkl6y37wP08uyL1-53">
          <mxGeometry width="30" height="30" as="geometry" />
        </mxCell>
        <mxCell id="LH-airkl6y37wP08uyL1-55" value="address" style="shape=partialRectangle;connectable=0;fillColor=none;top=0;left=0;bottom=0;right=0;align=left;spacingLeft=6;overflow=hidden;" vertex="1" parent="LH-airkl6y37wP08uyL1-53">
          <mxGeometry x="30" width="100" height="30" as="geometry" />
        </mxCell>
        <mxCell id="LH-airkl6y37wP08uyL1-106" value="VCHAR(45) NOT NULL" style="shape=partialRectangle;connectable=0;fillColor=none;top=0;left=0;bottom=0;right=0;align=left;spacingLeft=6;overflow=hidden;fontStyle=1" vertex="1" parent="LH-airkl6y37wP08uyL1-53">
          <mxGeometry x="130" width="140" height="30" as="geometry" />
        </mxCell>
        <mxCell id="LH-airkl6y37wP08uyL1-56" value="" style="shape=partialRectangle;collapsible=0;dropTarget=0;pointerEvents=0;fillColor=none;top=0;left=0;bottom=0;right=0;points=[[0,0.5],[1,0.5]];portConstraint=eastwest;" vertex="1" parent="LH-airkl6y37wP08uyL1-43">
          <mxGeometry y="150" width="270" height="30" as="geometry" />
        </mxCell>
        <mxCell id="LH-airkl6y37wP08uyL1-57" value="" style="shape=partialRectangle;connectable=0;fillColor=none;top=0;left=0;bottom=0;right=0;editable=1;overflow=hidden;" vertex="1" parent="LH-airkl6y37wP08uyL1-56">
          <mxGeometry width="30" height="30" as="geometry" />
        </mxCell>
        <mxCell id="LH-airkl6y37wP08uyL1-58" value="phone_number" style="shape=partialRectangle;connectable=0;fillColor=none;top=0;left=0;bottom=0;right=0;align=left;spacingLeft=6;overflow=hidden;" vertex="1" parent="LH-airkl6y37wP08uyL1-56">
          <mxGeometry x="30" width="100" height="30" as="geometry" />
        </mxCell>
        <mxCell id="LH-airkl6y37wP08uyL1-107" value="VCHAR(9) NOT NULL" style="shape=partialRectangle;connectable=0;fillColor=none;top=0;left=0;bottom=0;right=0;align=left;spacingLeft=6;overflow=hidden;fontStyle=1" vertex="1" parent="LH-airkl6y37wP08uyL1-56">
          <mxGeometry x="130" width="140" height="30" as="geometry" />
        </mxCell>
        <mxCell id="LH-airkl6y37wP08uyL1-59" value="" style="shape=partialRectangle;collapsible=0;dropTarget=0;pointerEvents=0;fillColor=none;top=0;left=0;bottom=0;right=0;points=[[0,0.5],[1,0.5]];portConstraint=eastwest;" vertex="1" parent="LH-airkl6y37wP08uyL1-43">
          <mxGeometry y="180" width="270" height="30" as="geometry" />
        </mxCell>
        <mxCell id="LH-airkl6y37wP08uyL1-60" value="" style="shape=partialRectangle;connectable=0;fillColor=none;top=0;left=0;bottom=0;right=0;editable=1;overflow=hidden;" vertex="1" parent="LH-airkl6y37wP08uyL1-59">
          <mxGeometry width="30" height="30" as="geometry" />
        </mxCell>
        <mxCell id="LH-airkl6y37wP08uyL1-61" value="state" style="shape=partialRectangle;connectable=0;fillColor=none;top=0;left=0;bottom=0;right=0;align=left;spacingLeft=6;overflow=hidden;" vertex="1" parent="LH-airkl6y37wP08uyL1-59">
          <mxGeometry x="30" width="100" height="30" as="geometry" />
        </mxCell>
        <mxCell id="LH-airkl6y37wP08uyL1-108" value="BOOLEAN NOT NULL" style="shape=partialRectangle;connectable=0;fillColor=none;top=0;left=0;bottom=0;right=0;align=left;spacingLeft=6;overflow=hidden;fontStyle=1" vertex="1" parent="LH-airkl6y37wP08uyL1-59">
          <mxGeometry x="130" width="140" height="30" as="geometry" />
        </mxCell>
        <mxCell id="LH-airkl6y37wP08uyL1-62" value="" style="edgeStyle=orthogonalEdgeStyle;rounded=0;orthogonalLoop=1;jettySize=auto;html=1;fontFamily=JetBrains Mono;fontSource=https%3A%2F%2Ffonts.googleapis.com%2Fcss%3Ffamily%3DJetBrains%2BMono;fontSize=13;fontColor=#3399FF;entryX=0;entryY=0.5;entryDx=0;entryDy=0;" edge="1" parent="1" source="LH-airkl6y37wP08uyL1-50" target="LH-airkl6y37wP08uyL1-119">
          <mxGeometry relative="1" as="geometry" />
        </mxCell>
        <mxCell id="LH-airkl6y37wP08uyL1-110" value="Class" style="rounded=0;whiteSpace=wrap;html=1;shadow=0;labelBackgroundColor=#DAE8FC;sketch=0;strokeWidth=1;fontFamily=JetBrains Mono;fontSource=https%3A%2F%2Ffonts.googleapis.com%2Fcss%3Ffamily%3DJetBrains%2BMono;fontSize=19;fontStyle=0;strokeColor=#6c8ebf;fillColor=#DAE8FC;" vertex="1" parent="1">
          <mxGeometry x="437.5" y="280" width="90" height="40" as="geometry" />
        </mxCell>
        <mxCell id="LH-airkl6y37wP08uyL1-111" value="id_client" style="rounded=0;whiteSpace=wrap;html=1;shadow=0;labelBackgroundColor=#E6E6E6;sketch=0;strokeWidth=1;gradientColor=none;fontFamily=JetBrains Mono;fontSource=https%3A%2F%2Ffonts.googleapis.com%2Fcss%3Ffamily%3DJetBrains%2BMono;fontSize=14;fontColor=#000000;align=center;fontStyle=1;fillColor=#E6E6E6;" vertex="1" parent="1">
          <mxGeometry x="560" y="40" width="130" height="30" as="geometry" />
        </mxCell>
        <mxCell id="LH-airkl6y37wP08uyL1-113" value="code_client" style="rounded=0;whiteSpace=wrap;html=1;shadow=0;labelBackgroundColor=#E6E6E6;sketch=0;strokeWidth=1;gradientColor=none;fontFamily=JetBrains Mono;fontSource=https%3A%2F%2Ffonts.googleapis.com%2Fcss%3Ffamily%3DJetBrains%2BMono;fontSize=14;fontColor=#000000;align=center;fontStyle=1;fillColor=#E6E6E6;" vertex="1" parent="1">
          <mxGeometry x="560" y="80" width="130" height="30" as="geometry" />
        </mxCell>
        <mxCell id="LH-airkl6y37wP08uyL1-114" value="name" style="rounded=0;whiteSpace=wrap;html=1;shadow=0;labelBackgroundColor=#E6E6E6;sketch=0;strokeWidth=1;gradientColor=none;fontFamily=JetBrains Mono;fontSource=https%3A%2F%2Ffonts.googleapis.com%2Fcss%3Ffamily%3DJetBrains%2BMono;fontSize=14;fontColor=#000000;align=center;fontStyle=1;fillColor=#E6E6E6;" vertex="1" parent="1">
          <mxGeometry x="560" y="120" width="130" height="30" as="geometry" />
        </mxCell>
        <mxCell id="LH-airkl6y37wP08uyL1-115" value="address" style="rounded=0;whiteSpace=wrap;html=1;shadow=0;labelBackgroundColor=#E6E6E6;sketch=0;strokeWidth=1;gradientColor=none;fontFamily=JetBrains Mono;fontSource=https%3A%2F%2Ffonts.googleapis.com%2Fcss%3Ffamily%3DJetBrains%2BMono;fontSize=14;fontColor=#000000;align=center;fontStyle=1;fillColor=#E6E6E6;" vertex="1" parent="1">
          <mxGeometry x="560" y="160" width="130" height="30" as="geometry" />
        </mxCell>
        <mxCell id="LH-airkl6y37wP08uyL1-116" value="phone_number" style="rounded=0;whiteSpace=wrap;html=1;shadow=0;labelBackgroundColor=#E6E6E6;sketch=0;strokeWidth=1;gradientColor=none;fontFamily=JetBrains Mono;fontSource=https%3A%2F%2Ffonts.googleapis.com%2Fcss%3Ffamily%3DJetBrains%2BMono;fontSize=14;fontColor=#000000;align=center;fontStyle=1;fillColor=#E6E6E6;" vertex="1" parent="1">
          <mxGeometry x="560" y="205" width="130" height="30" as="geometry" />
        </mxCell>
        <mxCell id="LH-airkl6y37wP08uyL1-118" value="state_client" style="rounded=0;whiteSpace=wrap;html=1;shadow=0;labelBackgroundColor=#E6E6E6;sketch=0;strokeWidth=1;gradientColor=none;fontFamily=JetBrains Mono;fontSource=https%3A%2F%2Ffonts.googleapis.com%2Fcss%3Ffamily%3DJetBrains%2BMono;fontSize=14;fontColor=#000000;align=center;fontStyle=1;fillColor=#E6E6E6;" vertex="1" parent="1">
          <mxGeometry x="560" y="250" width="130" height="30" as="geometry" />
        </mxCell>
        <mxCell id="LH-airkl6y37wP08uyL1-120" value="" style="strokeWidth=2;html=1;shape=mxgraph.flowchart.database;whiteSpace=wrap;shadow=0;labelBackgroundColor=#E6E6E6;sketch=0;fillColor=#FFFFFF;gradientColor=none;fontFamily=JetBrains Mono;fontSource=https%3A%2F%2Ffonts.googleapis.com%2Fcss%3Ffamily%3DJetBrains%2BMono;fontSize=14;fontColor=#000000;align=center;" vertex="1" parent="1">
          <mxGeometry x="860" y="142.5" width="80" height="85" as="geometry" />
        </mxCell>
      </root>
    </mxGraphModel>
  </diagram>
</mxfile>
